# xmcd
#
# Track frame offsets:
#	150
#	19327
#	41946
#	61171
#	82997
#	116649
#	137802
#	150738
#	175249
#	192863
#
# Disc length: 3175 seconds
#
# Revision: 0
# Processed by: cddbd v1.5.2PL0 Copyright (c) Steve Scherf et al.
# Submitted via: EZCDAudioConverter 1.3.4.1
#
DISCID=840c650a
DTITLE=Lamont Johnson - Music Of The Sun
DYEAR=2013
DGENRE=Soul
TTITLE0=Sister Fine
TTITLE1=Easy Come, Easy Go
TTITLE2=In With This Song
TTITLE3=This Must Be Heaven
TTITLE4=Hey Girl
TTITLE5=Differently
TTITLE6=Yours Truly, Discreetly
TTITLE7=Music Of The Sun
TTITLE8=Hey Girl (7" Edit)
TTITLE9=Sister Fine (12"Mix)
EXTD=
EXTT0=
EXTT1=
EXTT2=
EXTT3=
EXTT4=
EXTT5=
EXTT6=
EXTT7=
EXTT8=
EXTT9=
PLAYORDER=
